<svg width="14" height="14" viewBox="0 0 14 14" fill="none" xmlns="http://www.w3.org/2000/svg">
<path d="M6.70384 1.62692H4.52276C2.72901 1.62692 1.60434 2.89684 1.60434 4.69467V9.54451C1.60434 11.3423 2.72376 12.6123 4.52276 12.6123H9.67009C11.4697 12.6123 12.5891 11.3423 12.5891 9.54451V7.19484" stroke="#DDDDDD" stroke-linecap="round" stroke-linejoin="round"/>
<path fill-rule="evenodd" clip-rule="evenodd" d="M5.14955 6.37053L9.5088 2.01128C10.0519 1.46878 10.9321 1.46878 11.4752 2.01128L12.1851 2.72119C12.7282 3.26428 12.7282 4.14511 12.1851 4.68761L7.80489 9.06786C7.56747 9.30528 7.24547 9.43886 6.90947 9.43886H4.7243L4.77914 7.23386C4.7873 6.90953 4.91972 6.60036 5.14955 6.37053Z" stroke="#DDDDDD" stroke-linecap="round" stroke-linejoin="round"/>
<path d="M8.84637 2.68478L11.5099 5.34828" stroke="#DDDDDD" stroke-linecap="round" stroke-linejoin="round"/>
</svg>
